<?xml version="1.0" encoding="UTF-8"?>
<svg width="80px" height="71px" viewBox="0 0 80 71" version="1.1" xmlns="http://www.w3.org/2000/svg" xmlns:xlink="http://www.w3.org/1999/xlink">
    <title>Logo</title>
    <defs></defs>
    <g id="Page-1" stroke="none" stroke-width="1" fill="none" fill-rule="evenodd">
        <g id="logo" fill="#61DAFB">
            <g id="Group">
                <path d="M79.8861789,35.4929577 C79.8861789,30.2136849 73.2682927,25.2105585 63.1219512,22.1079705 C65.4634146,11.7768395 64.4227642,3.55741773 59.8373984,0.925903246 C58.7804878,0.308634415 57.5447154,0.0162439166 56.195122,0.0162439166 L56.195122,3.63863732 C56.9430894,3.63863732 57.5447154,3.78483257 58.0487805,4.06097915 C60.2601626,5.32800464 61.2195122,10.1524479 60.4715447,16.357624 C60.2926829,17.8845522 60,19.4926999 59.6422764,21.1333355 C56.4552846,20.3536275 52.9756098,19.7526026 49.3170732,19.3627486 C47.1219512,16.357624 44.8455285,13.628646 42.5528455,11.2407903 C47.8536585,6.31888355 52.8292683,3.6223934 56.2113821,3.6223934 L56.2113821,0 C51.7398374,0 45.8861789,3.18380765 39.9674797,8.70673929 C34.0487805,3.21629548 28.195122,0.0649756664 23.7235772,0.0649756664 L23.7235772,3.68736907 C27.0894309,3.68736907 32.0813008,6.3676153 37.3821138,11.2570342 C35.1056911,13.6448899 32.8292683,16.357624 30.6666667,19.3627486 C26.9918699,19.7526026 23.5121951,20.3536275 20.3252033,21.1495794 C19.9512195,19.5251877 19.6747967,17.9495278 19.4796748,16.4388436 C18.7154472,10.2336675 19.6585366,5.40922422 21.8536585,4.12595481 C22.3414634,3.83356431 22.9756098,3.70361298 23.7235772,3.70361298 L23.7235772,0.0812195829 C22.3577236,0.0812195829 21.1219512,0.373610082 20.0487805,0.990878912 C15.4796748,3.6223934 14.4552846,11.8255713 16.8130081,22.1242144 C6.69918699,25.2430464 0.113821138,30.2299288 0.113821138,35.4929577 C0.113821138,40.7722306 6.73170732,45.7753569 16.8780488,48.877945 C14.5365854,59.209076 15.5772358,67.4284978 20.1626016,70.0600122 C21.2195122,70.6772811 22.4552846,70.9696716 23.8211382,70.9696716 C28.2926829,70.9696716 34.1463415,67.7858639 40.0650407,62.2629323 C45.9837398,67.7533761 51.8373984,70.9046959 56.3089431,70.9046959 C57.6747967,70.9046959 58.9105691,70.6123054 59.9837398,69.9950366 C64.5528455,67.3635221 65.5772358,59.1603442 63.2195122,48.8617011 C73.300813,45.759113 79.8861789,40.7559867 79.8861789,35.4929577 L79.8861789,35.4929577 Z M58.7154472,24.6582654 C58.1138211,26.7537306 57.3658537,28.9141715 56.5203252,31.0746124 C55.8536585,29.7750991 55.1544715,28.4755858 54.3902439,27.1760725 C53.6422764,25.8765591 52.8455285,24.6095336 52.0487805,23.374996 C54.3577236,23.7161182 56.5853659,24.1384601 58.7154472,24.6582654 L58.7154472,24.6582654 Z M51.2682927,41.9580365 C50,44.1509653 48.699187,46.2301866 47.3495935,48.1632127 C44.9268293,48.3743836 42.4715447,48.488091 40,48.488091 C37.5447154,48.488091 35.0894309,48.3743836 32.6829268,48.1794566 C31.3333333,46.2464305 30.0162602,44.1834531 28.7479675,42.0067683 C27.5121951,39.8788152 26.3902439,37.7183743 25.3658537,35.5416895 C26.3739837,33.3650047 27.5121951,31.1883199 28.7317073,29.0603668 C30,26.867438 31.300813,24.7882167 32.6504065,22.8551906 C35.0731707,22.6440197 37.5284553,22.5303123 40,22.5303123 C42.4552846,22.5303123 44.9105691,22.6440197 47.3170732,22.8389467 C48.6666667,24.7719728 49.9837398,26.8349502 51.2520325,29.011635 C52.4878049,31.1395881 53.6097561,33.300029 54.6341463,35.4767138 C53.6097561,37.6533987 52.4878049,39.8300835 51.2682927,41.9580365 L51.2682927,41.9580365 Z M56.5203252,39.8463274 C57.398374,42.0230122 58.1463415,44.199697 58.7642276,46.3114062 C56.6341463,46.8312115 54.3902439,47.2697973 52.0650407,47.6109195 C52.8617886,46.3601379 53.6585366,45.0768685 54.4065041,43.7611113 C55.1544715,42.461598 55.8536585,41.1458407 56.5203252,39.8463274 L56.5203252,39.8463274 Z M40.0325203,57.1785864 C38.5203252,55.6191704 37.0081301,53.8810713 35.5121951,51.9805331 C36.9756098,52.0455088 38.4715447,52.0942405 39.9837398,52.0942405 C41.5121951,52.0942405 43.0243902,52.0617527 44.504065,51.9805331 C43.0406504,53.8810713 41.5284553,55.6191704 40.0325203,57.1785864 L40.0325203,57.1785864 Z M27.9349593,47.6109195 C25.6260163,47.2697973 23.398374,46.8474554 21.2682927,46.3276501 C21.8699187,44.2321849 22.6178862,42.071744 23.4634146,39.9113031 C24.1300813,41.2108164 24.8292683,42.5103297 25.5934959,43.809843 C26.3577236,45.1093564 27.1382114,46.3763819 27.9349593,47.6109195 L27.9349593,47.6109195 Z M39.9512195,13.8073291 C41.4634146,15.3667451 42.9756098,17.1048442 44.4715447,19.0053824 C43.0081301,18.9404067 41.5121951,18.891675 40,18.891675 C38.4715447,18.891675 36.9593496,18.9241628 35.4796748,19.0053824 C36.9430894,17.1048442 38.4552846,15.3667451 39.9512195,13.8073291 L39.9512195,13.8073291 Z M27.9186992,23.374996 C27.1219512,24.6257775 26.3252033,25.909047 25.5772358,27.2248042 C24.8292683,28.5243175 24.1300813,29.8238309 23.4634146,31.1233442 C22.5853659,28.9466594 21.8373984,26.7699745 21.2195122,24.6582654 C23.3495935,24.154704 25.5934959,23.7161182 27.9186992,23.374996 L27.9186992,23.374996 Z M13.203252,43.7123795 C7.44715447,41.2595481 3.72357724,38.0432527 3.72357724,35.4929577 C3.72357724,32.9426628 7.44715447,29.7101234 13.203252,27.273536 C14.601626,26.672511 16.1300813,26.1364618 17.7073171,25.6329004 C18.6341463,28.816708 19.8536585,32.130467 21.3658537,35.5254456 C19.8699187,38.9041802 18.6666667,42.2016953 17.7560976,45.369259 C16.1463415,44.8656976 14.6178862,44.3134045 13.203252,43.7123795 L13.203252,43.7123795 Z M21.9512195,66.9249363 C19.7398374,65.6579109 18.7804878,60.8334676 19.5284553,54.6282915 C19.7073171,53.1013633 20,51.4932156 20.3577236,49.85258 C23.5447154,50.632288 27.0243902,51.2333129 30.6829268,51.6231669 C32.8780488,54.6282915 35.1544715,57.3572695 37.4471545,59.7451252 C32.1463415,64.6670319 27.1707317,67.3635221 23.7886179,67.3635221 C23.0569106,67.3472782 22.4390244,67.2010829 21.9512195,66.9249363 L21.9512195,66.9249363 Z M60.5203252,54.5470719 C61.2845528,60.752248 60.3414634,65.5766913 58.1463415,66.8599607 C57.6585366,67.1523512 57.0243902,67.2823025 56.2764228,67.2823025 C52.9105691,67.2823025 47.9186992,64.6020563 42.6178862,59.7126374 C44.8943089,57.3247816 47.1707317,54.6120476 49.3333333,51.606923 C53.0081301,51.217069 56.4878049,50.6160441 59.6747967,49.8200922 C60.0487805,51.4607278 60.3414634,53.0363877 60.5203252,54.5470719 L60.5203252,54.5470719 Z M66.7804878,43.7123795 C65.3821138,44.3134045 63.8536585,44.8494537 62.2764228,45.3530151 C61.3495935,42.1692075 60.1300813,38.8554485 58.6178862,35.4604699 C60.1138211,32.0817353 61.3170732,28.7842202 62.2276423,25.6166565 C63.8373984,26.1202179 65.3658537,26.672511 66.796748,27.273536 C72.5528455,29.7263674 76.2764228,32.9426628 76.2764228,35.4929577 C76.2601626,38.0432527 72.5365854,41.2757921 66.7804878,43.7123795 L66.7804878,43.7123795 Z" id="Shape"></path>
                <ellipse id="Oval" cx="39.9837398" cy="35.4929577" rx="7.43089431" ry="7.42346988"></ellipse>
            </g>
        </g>
    </g>
</svg>
